<mxfile host="app.diagrams.net" modified="2023-03-31T23:34:48.159Z" agent="Mozilla/5.0 (Windows NT 10.0; Win64; x64) AppleWebKit/537.36 (KHTML, like Gecko) Chrome/111.0.0.0 Safari/537.36" etag="-39YjxSRlLk-gkL_JbMc" version="21.1.2" type="device">
  <diagram id="LXzsLuuNuo0Rxr8nkvQQ" name="Page-1">
    <mxGraphModel dx="840" dy="433" grid="1" gridSize="10" guides="1" tooltips="1" connect="1" arrows="1" fold="1" page="1" pageScale="1" pageWidth="850" pageHeight="1100" math="0" shadow="0">
      <root>
        <mxCell id="0" />
        <mxCell id="1" parent="0" />
        <mxCell id="w8x3Eff8AE29bfVnjQau-58" style="rounded=0;orthogonalLoop=1;jettySize=auto;html=1;exitX=0;exitY=1;exitDx=0;exitDy=0;endArrow=none;endFill=0;" edge="1" parent="1" source="w8x3Eff8AE29bfVnjQau-56" target="w8x3Eff8AE29bfVnjQau-57">
          <mxGeometry relative="1" as="geometry" />
        </mxCell>
        <mxCell id="w8x3Eff8AE29bfVnjQau-56" value="Patient" style="rounded=0;whiteSpace=wrap;html=1;" vertex="1" parent="1">
          <mxGeometry x="410" y="200" width="120" height="60" as="geometry" />
        </mxCell>
        <mxCell id="w8x3Eff8AE29bfVnjQau-57" value="&lt;u&gt;UUID&lt;/u&gt;" style="ellipse;whiteSpace=wrap;html=1;" vertex="1" parent="1">
          <mxGeometry x="290" y="350" width="80" height="50" as="geometry" />
        </mxCell>
        <mxCell id="w8x3Eff8AE29bfVnjQau-70" style="rounded=0;orthogonalLoop=1;jettySize=auto;html=1;exitX=0.5;exitY=0;exitDx=0;exitDy=0;endArrow=none;endFill=0;entryX=0;entryY=1;entryDx=0;entryDy=0;" edge="1" parent="1" source="w8x3Eff8AE29bfVnjQau-68" target="w8x3Eff8AE29bfVnjQau-56">
          <mxGeometry relative="1" as="geometry" />
        </mxCell>
        <mxCell id="w8x3Eff8AE29bfVnjQau-68" value="Name" style="ellipse;whiteSpace=wrap;html=1;" vertex="1" parent="1">
          <mxGeometry x="330" y="390" width="80" height="50" as="geometry" />
        </mxCell>
        <mxCell id="w8x3Eff8AE29bfVnjQau-131" style="rounded=0;orthogonalLoop=1;jettySize=auto;html=1;exitX=0.5;exitY=0;exitDx=0;exitDy=0;endArrow=none;endFill=0;" edge="1" parent="1" source="w8x3Eff8AE29bfVnjQau-95">
          <mxGeometry relative="1" as="geometry">
            <mxPoint x="530" y="250" as="targetPoint" />
          </mxGeometry>
        </mxCell>
        <mxCell id="w8x3Eff8AE29bfVnjQau-95" value="DOB" style="ellipse;whiteSpace=wrap;html=1;" vertex="1" parent="1">
          <mxGeometry x="480" y="420" width="80" height="50" as="geometry" />
        </mxCell>
        <mxCell id="w8x3Eff8AE29bfVnjQau-130" style="rounded=0;orthogonalLoop=1;jettySize=auto;html=1;exitX=0;exitY=0;exitDx=0;exitDy=0;endArrow=none;endFill=0;" edge="1" parent="1" source="w8x3Eff8AE29bfVnjQau-99">
          <mxGeometry relative="1" as="geometry">
            <mxPoint x="530" y="260" as="targetPoint" />
          </mxGeometry>
        </mxCell>
        <mxCell id="w8x3Eff8AE29bfVnjQau-99" value="InsuranceNumber" style="ellipse;whiteSpace=wrap;html=1;" vertex="1" parent="1">
          <mxGeometry x="555" y="400" width="110" height="50" as="geometry" />
        </mxCell>
        <mxCell id="w8x3Eff8AE29bfVnjQau-129" style="rounded=0;orthogonalLoop=1;jettySize=auto;html=1;exitX=0;exitY=0;exitDx=0;exitDy=0;endArrow=none;endFill=0;" edge="1" parent="1" source="w8x3Eff8AE29bfVnjQau-100">
          <mxGeometry relative="1" as="geometry">
            <mxPoint x="530" y="260" as="targetPoint" />
          </mxGeometry>
        </mxCell>
        <mxCell id="w8x3Eff8AE29bfVnjQau-100" value="Height" style="ellipse;whiteSpace=wrap;html=1;" vertex="1" parent="1">
          <mxGeometry x="620" y="350" width="80" height="50" as="geometry" />
        </mxCell>
        <mxCell id="w8x3Eff8AE29bfVnjQau-128" style="rounded=0;orthogonalLoop=1;jettySize=auto;html=1;exitX=0;exitY=0.5;exitDx=0;exitDy=0;entryX=1;entryY=1;entryDx=0;entryDy=0;endArrow=none;endFill=0;" edge="1" parent="1" source="w8x3Eff8AE29bfVnjQau-101" target="w8x3Eff8AE29bfVnjQau-56">
          <mxGeometry relative="1" as="geometry" />
        </mxCell>
        <mxCell id="w8x3Eff8AE29bfVnjQau-101" value="Weight" style="ellipse;whiteSpace=wrap;html=1;" vertex="1" parent="1">
          <mxGeometry x="665" y="290" width="80" height="50" as="geometry" />
        </mxCell>
        <mxCell id="w8x3Eff8AE29bfVnjQau-134" style="rounded=0;orthogonalLoop=1;jettySize=auto;html=1;exitX=0;exitY=0.5;exitDx=0;exitDy=0;entryX=1;entryY=1;entryDx=0;entryDy=0;endArrow=none;endFill=0;" edge="1" parent="1" source="w8x3Eff8AE29bfVnjQau-102" target="w8x3Eff8AE29bfVnjQau-56">
          <mxGeometry relative="1" as="geometry" />
        </mxCell>
        <mxCell id="w8x3Eff8AE29bfVnjQau-102" value="BloodPressure" style="ellipse;whiteSpace=wrap;html=1;" vertex="1" parent="1">
          <mxGeometry x="690" y="230" width="80" height="50" as="geometry" />
        </mxCell>
        <mxCell id="w8x3Eff8AE29bfVnjQau-126" style="rounded=0;orthogonalLoop=1;jettySize=auto;html=1;exitX=0;exitY=0.5;exitDx=0;exitDy=0;entryX=1;entryY=0;entryDx=0;entryDy=0;endArrow=none;endFill=0;" edge="1" parent="1" source="w8x3Eff8AE29bfVnjQau-103" target="w8x3Eff8AE29bfVnjQau-56">
          <mxGeometry relative="1" as="geometry" />
        </mxCell>
        <mxCell id="w8x3Eff8AE29bfVnjQau-103" value="Temperature" style="ellipse;whiteSpace=wrap;html=1;" vertex="1" parent="1">
          <mxGeometry x="680" y="180" width="80" height="50" as="geometry" />
        </mxCell>
        <mxCell id="w8x3Eff8AE29bfVnjQau-123" style="rounded=0;orthogonalLoop=1;jettySize=auto;html=1;exitX=0;exitY=0.5;exitDx=0;exitDy=0;entryX=1;entryY=0;entryDx=0;entryDy=0;endArrow=none;endFill=0;" edge="1" parent="1" source="w8x3Eff8AE29bfVnjQau-104" target="w8x3Eff8AE29bfVnjQau-56">
          <mxGeometry relative="1" as="geometry" />
        </mxCell>
        <mxCell id="w8x3Eff8AE29bfVnjQau-104" value="OxygenSaturation" style="ellipse;whiteSpace=wrap;html=1;" vertex="1" parent="1">
          <mxGeometry x="645" y="130" width="105" height="50" as="geometry" />
        </mxCell>
        <mxCell id="w8x3Eff8AE29bfVnjQau-122" style="rounded=0;orthogonalLoop=1;jettySize=auto;html=1;exitX=0;exitY=1;exitDx=0;exitDy=0;entryX=1;entryY=0;entryDx=0;entryDy=0;endArrow=none;endFill=0;" edge="1" parent="1" source="w8x3Eff8AE29bfVnjQau-105" target="w8x3Eff8AE29bfVnjQau-56">
          <mxGeometry relative="1" as="geometry" />
        </mxCell>
        <mxCell id="w8x3Eff8AE29bfVnjQau-105" value="Address" style="ellipse;whiteSpace=wrap;html=1;" vertex="1" parent="1">
          <mxGeometry x="620" y="80" width="80" height="50" as="geometry" />
        </mxCell>
        <mxCell id="w8x3Eff8AE29bfVnjQau-141" style="rounded=0;orthogonalLoop=1;jettySize=auto;html=1;endArrow=none;endFill=0;" edge="1" parent="1" source="w8x3Eff8AE29bfVnjQau-107">
          <mxGeometry relative="1" as="geometry">
            <mxPoint x="410" y="200" as="targetPoint" />
          </mxGeometry>
        </mxCell>
        <mxCell id="w8x3Eff8AE29bfVnjQau-107" value="currentlyEmployed" style="ellipse;whiteSpace=wrap;html=1;" vertex="1" parent="1">
          <mxGeometry x="370" y="10" width="100" height="50" as="geometry" />
        </mxCell>
        <mxCell id="w8x3Eff8AE29bfVnjQau-142" style="rounded=0;orthogonalLoop=1;jettySize=auto;html=1;exitX=0.5;exitY=1;exitDx=0;exitDy=0;entryX=1;entryY=0;entryDx=0;entryDy=0;endArrow=none;endFill=0;" edge="1" parent="1" source="w8x3Eff8AE29bfVnjQau-110" target="w8x3Eff8AE29bfVnjQau-56">
          <mxGeometry relative="1" as="geometry" />
        </mxCell>
        <mxCell id="w8x3Eff8AE29bfVnjQau-110" value="FamilyHistory" style="ellipse;whiteSpace=wrap;html=1;" vertex="1" parent="1">
          <mxGeometry x="540" y="60" width="80" height="50" as="geometry" />
        </mxCell>
        <mxCell id="w8x3Eff8AE29bfVnjQau-140" style="rounded=0;orthogonalLoop=1;jettySize=auto;html=1;exitX=1;exitY=1;exitDx=0;exitDy=0;entryX=0;entryY=0;entryDx=0;entryDy=0;endArrow=none;endFill=0;" edge="1" parent="1" source="w8x3Eff8AE29bfVnjQau-111" target="w8x3Eff8AE29bfVnjQau-56">
          <mxGeometry relative="1" as="geometry" />
        </mxCell>
        <mxCell id="w8x3Eff8AE29bfVnjQau-111" value="currentlyInsured" style="ellipse;whiteSpace=wrap;html=1;" vertex="1" parent="1">
          <mxGeometry x="290" y="40" width="90" height="50" as="geometry" />
        </mxCell>
        <mxCell id="w8x3Eff8AE29bfVnjQau-139" style="rounded=0;orthogonalLoop=1;jettySize=auto;html=1;exitX=1;exitY=0.5;exitDx=0;exitDy=0;endArrow=none;endFill=0;" edge="1" parent="1" source="w8x3Eff8AE29bfVnjQau-159">
          <mxGeometry relative="1" as="geometry">
            <mxPoint x="410" y="200" as="targetPoint" />
            <mxPoint x="210.00000000000023" y="134.9999999999999" as="sourcePoint" />
          </mxGeometry>
        </mxCell>
        <mxCell id="w8x3Eff8AE29bfVnjQau-138" style="rounded=0;orthogonalLoop=1;jettySize=auto;html=1;exitX=1;exitY=0.5;exitDx=0;exitDy=0;entryX=0;entryY=0;entryDx=0;entryDy=0;endArrow=none;endFill=0;" edge="1" parent="1" source="w8x3Eff8AE29bfVnjQau-162" target="w8x3Eff8AE29bfVnjQau-56">
          <mxGeometry relative="1" as="geometry">
            <mxPoint x="150.00000000000023" y="234.9999999999999" as="sourcePoint" />
          </mxGeometry>
        </mxCell>
        <mxCell id="w8x3Eff8AE29bfVnjQau-137" style="rounded=0;orthogonalLoop=1;jettySize=auto;html=1;exitX=1;exitY=0.5;exitDx=0;exitDy=0;entryX=0;entryY=1;entryDx=0;entryDy=0;endArrow=none;endFill=0;" edge="1" parent="1" source="w8x3Eff8AE29bfVnjQau-163" target="w8x3Eff8AE29bfVnjQau-56">
          <mxGeometry relative="1" as="geometry">
            <mxPoint x="160.00000000000023" y="325" as="sourcePoint" />
          </mxGeometry>
        </mxCell>
        <mxCell id="w8x3Eff8AE29bfVnjQau-136" style="rounded=0;orthogonalLoop=1;jettySize=auto;html=1;exitX=1;exitY=0.5;exitDx=0;exitDy=0;entryX=0;entryY=1;entryDx=0;entryDy=0;endArrow=none;endFill=0;" edge="1" parent="1" source="w8x3Eff8AE29bfVnjQau-115" target="w8x3Eff8AE29bfVnjQau-56">
          <mxGeometry relative="1" as="geometry" />
        </mxCell>
        <mxCell id="w8x3Eff8AE29bfVnjQau-115" value="elgibility" style="ellipse;whiteSpace=wrap;html=1;" vertex="1" parent="1">
          <mxGeometry x="250" y="300" width="80" height="50" as="geometry" />
        </mxCell>
        <mxCell id="w8x3Eff8AE29bfVnjQau-132" style="rounded=0;orthogonalLoop=1;jettySize=auto;html=1;exitX=0.5;exitY=0;exitDx=0;exitDy=0;entryX=0;entryY=1;entryDx=0;entryDy=0;endArrow=none;endFill=0;" edge="1" parent="1" source="w8x3Eff8AE29bfVnjQau-116" target="w8x3Eff8AE29bfVnjQau-56">
          <mxGeometry relative="1" as="geometry" />
        </mxCell>
        <mxCell id="w8x3Eff8AE29bfVnjQau-116" value="PatientPicture" style="ellipse;whiteSpace=wrap;html=1;" vertex="1" parent="1">
          <mxGeometry x="400" y="430" width="80" height="50" as="geometry" />
        </mxCell>
        <mxCell id="w8x3Eff8AE29bfVnjQau-143" style="rounded=0;orthogonalLoop=1;jettySize=auto;html=1;exitX=0;exitY=0.5;exitDx=0;exitDy=0;entryX=1;entryY=1;entryDx=0;entryDy=0;endArrow=none;endFill=0;" edge="1" parent="1">
          <mxGeometry relative="1" as="geometry">
            <mxPoint x="690.1" y="255" as="sourcePoint" />
            <mxPoint x="530.1" y="260" as="targetPoint" />
          </mxGeometry>
        </mxCell>
        <mxCell id="w8x3Eff8AE29bfVnjQau-144" style="rounded=0;orthogonalLoop=1;jettySize=auto;html=1;exitX=0;exitY=0.5;exitDx=0;exitDy=0;entryX=1;entryY=0;entryDx=0;entryDy=0;endArrow=none;endFill=0;" edge="1" parent="1">
          <mxGeometry relative="1" as="geometry">
            <mxPoint x="680.1" y="205" as="sourcePoint" />
            <mxPoint x="530.1" y="200" as="targetPoint" />
          </mxGeometry>
        </mxCell>
        <mxCell id="w8x3Eff8AE29bfVnjQau-145" style="rounded=0;orthogonalLoop=1;jettySize=auto;html=1;exitX=0;exitY=0.5;exitDx=0;exitDy=0;entryX=1;entryY=0;entryDx=0;entryDy=0;endArrow=none;endFill=0;" edge="1" parent="1">
          <mxGeometry relative="1" as="geometry">
            <mxPoint x="645.1" y="155" as="sourcePoint" />
            <mxPoint x="530.1" y="200" as="targetPoint" />
          </mxGeometry>
        </mxCell>
        <mxCell id="w8x3Eff8AE29bfVnjQau-152" style="rounded=0;orthogonalLoop=1;jettySize=auto;html=1;exitX=0.5;exitY=0;exitDx=0;exitDy=0;entryX=0.5;entryY=1;entryDx=0;entryDy=0;endArrow=none;endFill=0;" edge="1" parent="1" source="w8x3Eff8AE29bfVnjQau-149" target="w8x3Eff8AE29bfVnjQau-56">
          <mxGeometry relative="1" as="geometry" />
        </mxCell>
        <mxCell id="w8x3Eff8AE29bfVnjQau-149" value="placeboReciever" style="ellipse;whiteSpace=wrap;html=1;" vertex="1" parent="1">
          <mxGeometry x="435" y="360" width="90" height="50" as="geometry" />
        </mxCell>
        <mxCell id="w8x3Eff8AE29bfVnjQau-154" style="rounded=0;orthogonalLoop=1;jettySize=auto;html=1;exitX=0;exitY=0.5;exitDx=0;exitDy=0;entryX=1;entryY=0.5;entryDx=0;entryDy=0;endArrow=none;endFill=0;" edge="1" parent="1" source="w8x3Eff8AE29bfVnjQau-150" target="w8x3Eff8AE29bfVnjQau-56">
          <mxGeometry relative="1" as="geometry" />
        </mxCell>
        <mxCell id="w8x3Eff8AE29bfVnjQau-150" value="currentTotalDoses" style="ellipse;whiteSpace=wrap;html=1;" vertex="1" parent="1">
          <mxGeometry x="580" y="205" width="100" height="50" as="geometry" />
        </mxCell>
        <mxCell id="w8x3Eff8AE29bfVnjQau-155" style="rounded=0;orthogonalLoop=1;jettySize=auto;html=1;exitX=0.5;exitY=1;exitDx=0;exitDy=0;entryX=0.5;entryY=0;entryDx=0;entryDy=0;endArrow=none;endFill=0;" edge="1" parent="1" source="w8x3Eff8AE29bfVnjQau-151" target="w8x3Eff8AE29bfVnjQau-56">
          <mxGeometry relative="1" as="geometry" />
        </mxCell>
        <mxCell id="w8x3Eff8AE29bfVnjQau-151" value="currentDoseFid" style="ellipse;whiteSpace=wrap;html=1;" vertex="1" parent="1">
          <mxGeometry x="470" y="20" width="100" height="50" as="geometry" />
        </mxCell>
        <mxCell id="w8x3Eff8AE29bfVnjQau-159" value="icdHealthCodes" style="ellipse;shape=doubleEllipse;whiteSpace=wrap;html=1;" vertex="1" parent="1">
          <mxGeometry x="150" y="35" width="100" height="60" as="geometry" />
        </mxCell>
        <mxCell id="w8x3Eff8AE29bfVnjQau-162" value="allergies" style="ellipse;shape=doubleEllipse;whiteSpace=wrap;html=1;" vertex="1" parent="1">
          <mxGeometry x="130" y="180" width="100" height="60" as="geometry" />
        </mxCell>
        <mxCell id="w8x3Eff8AE29bfVnjQau-163" value="visits" style="ellipse;shape=doubleEllipse;whiteSpace=wrap;html=1;" vertex="1" parent="1">
          <mxGeometry x="130" y="250" width="100" height="60" as="geometry" />
        </mxCell>
        <mxCell id="w8x3Eff8AE29bfVnjQau-166" style="rounded=0;orthogonalLoop=1;jettySize=auto;html=1;exitX=1;exitY=0.5;exitDx=0;exitDy=0;entryX=0;entryY=0;entryDx=0;entryDy=0;endArrow=none;endFill=0;" edge="1" parent="1" source="w8x3Eff8AE29bfVnjQau-164" target="w8x3Eff8AE29bfVnjQau-56">
          <mxGeometry relative="1" as="geometry" />
        </mxCell>
        <mxCell id="w8x3Eff8AE29bfVnjQau-164" value="CurrentMedications" style="ellipse;shape=doubleEllipse;whiteSpace=wrap;html=1;" vertex="1" parent="1">
          <mxGeometry x="110" y="110" width="120" height="60" as="geometry" />
        </mxCell>
        <mxCell id="w8x3Eff8AE29bfVnjQau-174" style="rounded=0;orthogonalLoop=1;jettySize=auto;html=1;exitX=1;exitY=0.5;exitDx=0;exitDy=0;entryX=0;entryY=0;entryDx=0;entryDy=0;endArrow=none;endFill=0;" edge="1" parent="1" source="w8x3Eff8AE29bfVnjQau-167" target="w8x3Eff8AE29bfVnjQau-163">
          <mxGeometry relative="1" as="geometry" />
        </mxCell>
        <mxCell id="w8x3Eff8AE29bfVnjQau-167" value="prevDoseFid" style="ellipse;whiteSpace=wrap;html=1;" vertex="1" parent="1">
          <mxGeometry y="230" width="90" height="50" as="geometry" />
        </mxCell>
        <mxCell id="w8x3Eff8AE29bfVnjQau-173" style="rounded=0;orthogonalLoop=1;jettySize=auto;html=1;exitX=1;exitY=0.5;exitDx=0;exitDy=0;entryX=0;entryY=0.5;entryDx=0;entryDy=0;endArrow=none;endFill=0;" edge="1" parent="1" source="w8x3Eff8AE29bfVnjQau-168" target="w8x3Eff8AE29bfVnjQau-163">
          <mxGeometry relative="1" as="geometry" />
        </mxCell>
        <mxCell id="w8x3Eff8AE29bfVnjQau-168" value="dateTime" style="ellipse;whiteSpace=wrap;html=1;" vertex="1" parent="1">
          <mxGeometry y="290" width="90" height="50" as="geometry" />
        </mxCell>
        <mxCell id="w8x3Eff8AE29bfVnjQau-172" style="rounded=0;orthogonalLoop=1;jettySize=auto;html=1;exitX=1;exitY=0;exitDx=0;exitDy=0;entryX=0;entryY=1;entryDx=0;entryDy=0;endArrow=none;endFill=0;" edge="1" parent="1" source="w8x3Eff8AE29bfVnjQau-169" target="w8x3Eff8AE29bfVnjQau-163">
          <mxGeometry relative="1" as="geometry" />
        </mxCell>
        <mxCell id="w8x3Eff8AE29bfVnjQau-169" value="notes" style="ellipse;whiteSpace=wrap;html=1;" vertex="1" parent="1">
          <mxGeometry x="50" y="340" width="90" height="50" as="geometry" />
        </mxCell>
        <mxCell id="w8x3Eff8AE29bfVnjQau-171" style="rounded=0;orthogonalLoop=1;jettySize=auto;html=1;exitX=0.5;exitY=0;exitDx=0;exitDy=0;entryX=0.5;entryY=1;entryDx=0;entryDy=0;endArrow=none;endFill=0;" edge="1" parent="1" source="w8x3Eff8AE29bfVnjQau-170" target="w8x3Eff8AE29bfVnjQau-163">
          <mxGeometry relative="1" as="geometry" />
        </mxCell>
        <mxCell id="w8x3Eff8AE29bfVnjQau-170" value="hivViralLoad" style="ellipse;whiteSpace=wrap;html=1;" vertex="1" parent="1">
          <mxGeometry x="125" y="380" width="90" height="50" as="geometry" />
        </mxCell>
        <mxCell id="w8x3Eff8AE29bfVnjQau-175" value="Drug" style="rounded=0;whiteSpace=wrap;html=1;" vertex="1" parent="1">
          <mxGeometry x="940" y="200" width="120" height="60" as="geometry" />
        </mxCell>
        <mxCell id="w8x3Eff8AE29bfVnjQau-183" style="rounded=0;orthogonalLoop=1;jettySize=auto;html=1;exitX=0.5;exitY=1;exitDx=0;exitDy=0;entryX=0.5;entryY=0;entryDx=0;entryDy=0;endArrow=none;endFill=0;" edge="1" parent="1" source="w8x3Eff8AE29bfVnjQau-176" target="w8x3Eff8AE29bfVnjQau-175">
          <mxGeometry relative="1" as="geometry" />
        </mxCell>
        <mxCell id="w8x3Eff8AE29bfVnjQau-176" value="placebo" style="ellipse;whiteSpace=wrap;html=1;" vertex="1" parent="1">
          <mxGeometry x="950" y="120" width="100" height="50" as="geometry" />
        </mxCell>
        <mxCell id="w8x3Eff8AE29bfVnjQau-184" style="rounded=0;orthogonalLoop=1;jettySize=auto;html=1;exitX=0;exitY=1;exitDx=0;exitDy=0;entryX=1;entryY=0;entryDx=0;entryDy=0;endArrow=none;endFill=0;" edge="1" parent="1" source="w8x3Eff8AE29bfVnjQau-177" target="w8x3Eff8AE29bfVnjQau-175">
          <mxGeometry relative="1" as="geometry" />
        </mxCell>
        <mxCell id="w8x3Eff8AE29bfVnjQau-177" value="batchNumber" style="ellipse;whiteSpace=wrap;html=1;" vertex="1" parent="1">
          <mxGeometry x="1050" y="135" width="100" height="50" as="geometry" />
        </mxCell>
        <mxCell id="w8x3Eff8AE29bfVnjQau-185" style="rounded=0;orthogonalLoop=1;jettySize=auto;html=1;exitX=0;exitY=0.5;exitDx=0;exitDy=0;entryX=1;entryY=0.5;entryDx=0;entryDy=0;endArrow=none;endFill=0;" edge="1" parent="1" source="w8x3Eff8AE29bfVnjQau-178" target="w8x3Eff8AE29bfVnjQau-175">
          <mxGeometry relative="1" as="geometry" />
        </mxCell>
        <mxCell id="w8x3Eff8AE29bfVnjQau-178" value="&lt;u&gt;bid&lt;/u&gt;" style="ellipse;whiteSpace=wrap;html=1;" vertex="1" parent="1">
          <mxGeometry x="1110" y="185" width="100" height="50" as="geometry" />
        </mxCell>
        <mxCell id="w8x3Eff8AE29bfVnjQau-186" style="rounded=0;orthogonalLoop=1;jettySize=auto;html=1;exitX=0;exitY=0.5;exitDx=0;exitDy=0;endArrow=none;endFill=0;" edge="1" parent="1" source="w8x3Eff8AE29bfVnjQau-179">
          <mxGeometry relative="1" as="geometry">
            <mxPoint x="1060" y="229.9999999999999" as="targetPoint" />
          </mxGeometry>
        </mxCell>
        <mxCell id="w8x3Eff8AE29bfVnjQau-179" value="fid" style="ellipse;whiteSpace=wrap;html=1;" vertex="1" parent="1">
          <mxGeometry x="1100" y="240" width="100" height="50" as="geometry" />
        </mxCell>
        <mxCell id="w8x3Eff8AE29bfVnjQau-188" style="rounded=0;orthogonalLoop=1;jettySize=auto;html=1;exitX=0.5;exitY=0;exitDx=0;exitDy=0;entryX=0.5;entryY=1;entryDx=0;entryDy=0;endArrow=none;endFill=0;" edge="1" parent="1" source="w8x3Eff8AE29bfVnjQau-180" target="w8x3Eff8AE29bfVnjQau-175">
          <mxGeometry relative="1" as="geometry" />
        </mxCell>
        <mxCell id="w8x3Eff8AE29bfVnjQau-180" value="patientUuid" style="ellipse;whiteSpace=wrap;html=1;" vertex="1" parent="1">
          <mxGeometry x="960" y="300" width="100" height="50" as="geometry" />
        </mxCell>
        <mxCell id="w8x3Eff8AE29bfVnjQau-187" style="rounded=0;orthogonalLoop=1;jettySize=auto;html=1;exitX=0;exitY=0;exitDx=0;exitDy=0;endArrow=none;endFill=0;" edge="1" parent="1" source="w8x3Eff8AE29bfVnjQau-181">
          <mxGeometry relative="1" as="geometry">
            <mxPoint x="1060" y="260" as="targetPoint" />
          </mxGeometry>
        </mxCell>
        <mxCell id="w8x3Eff8AE29bfVnjQau-181" value="used" style="ellipse;whiteSpace=wrap;html=1;" vertex="1" parent="1">
          <mxGeometry x="1060" y="290" width="100" height="50" as="geometry" />
        </mxCell>
        <mxCell id="w8x3Eff8AE29bfVnjQau-182" value="" style="endArrow=none;dashed=1;html=1;" edge="1" parent="1">
          <mxGeometry width="50" height="50" relative="1" as="geometry">
            <mxPoint x="1120" y="270" as="sourcePoint" />
            <mxPoint x="1180" y="270" as="targetPoint" />
            <Array as="points">
              <mxPoint x="1170" y="270" />
            </Array>
          </mxGeometry>
        </mxCell>
        <mxCell id="w8x3Eff8AE29bfVnjQau-193" value="Takes" style="shape=rhombus;perimeter=rhombusPerimeter;whiteSpace=wrap;html=1;align=center;" vertex="1" parent="1">
          <mxGeometry x="780" y="205" width="120" height="60" as="geometry" />
        </mxCell>
        <mxCell id="w8x3Eff8AE29bfVnjQau-195" value="" style="shape=link;html=1;rounded=0;endArrow=none;endFill=0;entryX=0;entryY=0.5;entryDx=0;entryDy=0;exitX=1;exitY=0.5;exitDx=0;exitDy=0;" edge="1" parent="1" source="w8x3Eff8AE29bfVnjQau-193" target="w8x3Eff8AE29bfVnjQau-175">
          <mxGeometry relative="1" as="geometry">
            <mxPoint x="1020" y="625" as="sourcePoint" />
            <mxPoint x="1070" y="560" as="targetPoint" />
          </mxGeometry>
        </mxCell>
        <mxCell id="w8x3Eff8AE29bfVnjQau-196" value="N" style="resizable=0;html=1;align=right;verticalAlign=bottom;" connectable="0" vertex="1" parent="w8x3Eff8AE29bfVnjQau-195">
          <mxGeometry x="1" relative="1" as="geometry">
            <mxPoint x="-40" y="-10" as="offset" />
          </mxGeometry>
        </mxCell>
        <mxCell id="w8x3Eff8AE29bfVnjQau-198" value="" style="endArrow=none;html=1;rounded=0;exitX=1;exitY=0.5;exitDx=0;exitDy=0;" edge="1" parent="1" source="w8x3Eff8AE29bfVnjQau-56" target="w8x3Eff8AE29bfVnjQau-193">
          <mxGeometry relative="1" as="geometry">
            <mxPoint x="875" y="755" as="sourcePoint" />
            <mxPoint x="905" y="755" as="targetPoint" />
          </mxGeometry>
        </mxCell>
        <mxCell id="w8x3Eff8AE29bfVnjQau-199" value="1" style="resizable=0;html=1;align=right;verticalAlign=bottom;" connectable="0" vertex="1" parent="w8x3Eff8AE29bfVnjQau-198">
          <mxGeometry x="1" relative="1" as="geometry" />
        </mxCell>
      </root>
    </mxGraphModel>
  </diagram>
</mxfile>
